<?xml version="1.0" encoding="UTF-8" standalone="no"?>
<!-- Created with Inkscape (http://www.inkscape.org/) -->

<svg
   xmlns:dc="http://purl.org/dc/elements/1.1/"
   xmlns:cc="http://creativecommons.org/ns#"
   xmlns:rdf="http://www.w3.org/1999/02/22-rdf-syntax-ns#"
   xmlns:svg="http://www.w3.org/2000/svg"
   xmlns="http://www.w3.org/2000/svg"
   xmlns:sodipodi="http://sodipodi.sourceforge.net/DTD/sodipodi-0.dtd"
   xmlns:inkscape="http://www.inkscape.org/namespaces/inkscape"
   width="744.09448819"
   height="1052.3622047"
   id="svg2"
   version="1.1"
   inkscape:version="0.48.4 r9939"
   sodipodi:docname="girl-face.svg">
  <defs
     id="defs4" />
  <sodipodi:namedview
     id="base"
     pagecolor="#ffffff"
     bordercolor="#666666"
     borderopacity="1.0"
     inkscape:pageopacity="0.0"
     inkscape:pageshadow="2"
     inkscape:zoom="0.7"
     inkscape:cx="452.95792"
     inkscape:cy="508.46454"
     inkscape:document-units="px"
     inkscape:current-layer="layer1"
     showgrid="false"
     inkscape:window-width="1366"
     inkscape:window-height="716"
     inkscape:window-x="0"
     inkscape:window-y="0"
     inkscape:window-maximized="1" />
  <metadata
     id="metadata7">
    <rdf:RDF>
      <cc:Work
         rdf:about="">
        <dc:format>image/svg+xml</dc:format>
        <dc:type
           rdf:resource="http://purl.org/dc/dcmitype/StillImage" />
        <dc:title></dc:title>
      </cc:Work>
    </rdf:RDF>
  </metadata>
  <g
     inkscape:label="Layer 1"
     inkscape:groupmode="layer"
     id="layer1">
    <path
       sodipodi:type="arc"
       style="fill:#ffffff;stroke:#000000;stroke-width:1;stroke-miterlimit:4;stroke-opacity:1;stroke-dasharray:none"
       id="path2994"
       sodipodi:cx="265.87604"
       sodipodi:cy="216.37367"
       sodipodi:rx="7.6953983"
       sodipodi:ry="28.84565"
       d="M 273.57144,216.37367 A 7.6953983,28.84565 0 1 1 258.2023,214.21086"
       transform="matrix(1.887783,0.2474123,0,1.4193497,-229.30836,-135.55345)"
       sodipodi:start="0"
       sodipodi:end="3.2166418"
       sodipodi:open="true" />
    <path
       sodipodi:type="arc"
       style="fill:#ffffff;fill-rule:evenodd;stroke:#000000;stroke-width:1px;stroke-linecap:butt;stroke-linejoin:miter;stroke-opacity:1"
       id="path2990"
       sodipodi:cx="416.18286"
       sodipodi:cy="243.73508"
       sodipodi:rx="81.822357"
       sodipodi:ry="105.56094"
       d="m 497.55699,232.70096 a 81.822357,105.56094 0 1 1 -163.1515,7.53423"
       transform="matrix(1.1043481,0,0,1.1418871,-91.246447,-45.582708)"
       sodipodi:start="6.1784656"
       sodipodi:end="9.4579392"
       sodipodi:open="true" />
    <path
       sodipodi:type="arc"
       style="fill:#ffffff;stroke:#000000;stroke-width:1;stroke-miterlimit:4;stroke-opacity:1;stroke-dasharray:none"
       id="path2994-3"
       sodipodi:cx="265.87604"
       sodipodi:cy="216.37367"
       sodipodi:rx="7.6953983"
       sodipodi:ry="28.84565"
       d="m 273.42226,210.72148 a 7.6953983,28.84565 0 0 1 -10.06429,32.90986"
       transform="matrix(1.820751,0.2196932,0,1.2603313,-26.714232,-92.80274)"
       sodipodi:start="6.0859631"
       sodipodi:end="8.1873395"
       sodipodi:open="true" />
    <path
       style="fill:none;stroke:#000000;stroke-width:1.33844411px;stroke-linecap:butt;stroke-linejoin:miter;stroke-opacity:1"
       d="m 339.83078,128.95997 c -19.56752,54.98976 -32.30796,92.07206 -92.44075,106.17063"
       id="path3800"
       inkscape:connector-curvature="0"
       sodipodi:nodetypes="cc" />
    <path
       style="fill:none;stroke:#000000;stroke-width:1.27479219px;stroke-linecap:butt;stroke-linejoin:miter;stroke-opacity:1"
       d="m 339.60169,129.64244 c 25.14216,42.6664 99.12789,87.96084 143.17753,106.14761"
       id="path3802"
       inkscape:connector-curvature="0"
       sodipodi:nodetypes="cc" />
    <path
       style="fill:none;stroke:#000000;stroke-width:1px;stroke-linecap:butt;stroke-linejoin:miter;stroke-opacity:1"
       d="m 340,129.50504 c -9.10475,-4.50751 -4.67229,-15.35703 -3.79866,-29.04749 0.79725,-12.493461 -0.47788,-27.38647 15.94152,-35.238226 25.21553,-12.058066 42.99068,-13.288368 55.83569,-11.689852 11.49836,1.430931 18.47846,4.560969 32.55408,13.465595 81.27938,51.419573 95.76135,222.017983 117.32451,251.795683"
       id="path3808"
       inkscape:connector-curvature="0"
       sodipodi:nodetypes="cssssc" />
    <path
       style="fill:none;stroke:#000000;stroke-width:1px;stroke-linecap:butt;stroke-linejoin:miter;stroke-opacity:1"
       d="M 340,80.219325 C 207.36307,53.315124 189.12459,315.56394 175.71428,393.79075"
       id="path3810"
       inkscape:connector-curvature="0"
       sodipodi:nodetypes="cc" />
    <path
       sodipodi:type="arc"
       style="fill:#ffffff;stroke:#000000;stroke-width:1;stroke-miterlimit:4;stroke-opacity:1;stroke-dasharray:none"
       id="path3812"
       sodipodi:cx="322.99628"
       sodipodi:cy="24.531967"
       sodipodi:rx="0.25253814"
       sodipodi:ry="1.0101526"
       d="m 323.24882,24.531967 a 0.25253814,1.0101526 0 0 0 -0.50494,-0.03349"
       sodipodi:start="0"
       sodipodi:end="-3.1084314"
       sodipodi:open="true" />
    <path
       style="fill:none;stroke:#000000;stroke-width:1px;stroke-linecap:butt;stroke-linejoin:miter;stroke-opacity:1"
       d="m 314.66252,333.13357 c 7.19648,22.85072 5.66583,45.32032 2.52538,63.63961"
       id="path3826"
       inkscape:connector-curvature="0" />
    <path
       style="fill:none;stroke:#000000;stroke-width:1px;stroke-linecap:butt;stroke-linejoin:miter;stroke-opacity:1"
       d="m 420.72854,330.10311 c -0.80639,22.26276 1.71919,47.20762 6.06091,65.65992"
       id="path3832"
       inkscape:connector-curvature="0" />
    <path
       style="fill:none;stroke:#000000;stroke-width:0.83334917px;stroke-linecap:butt;stroke-linejoin:miter;stroke-opacity:1"
       d="m 297.36011,217.32098 c 17.08851,-2.72099 42.77845,3.55486 54.08432,4.20687 7.19842,0.41512 -0.46426,-1.90635 -5.34693,-4.63398 -4.88266,-2.72763 -35.32,-12.57151 -41.68602,-8.75583 -6.36602,3.81568 -10.79647,9.77928 -7.05137,9.18294 z"
       id="path3867"
       inkscape:connector-curvature="0"
       sodipodi:nodetypes="sszzs" />
    <path
       style="fill:none;stroke:#000000;stroke-width:0.83334917px;stroke-linecap:butt;stroke-linejoin:miter;stroke-opacity:1"
       d="m 440.72705,220.3688 c -7.15869,-1.13987 -13.02621,-0.98583 -21.78931,-0.99362 -8.74303,-0.008 -26.73553,8.86223 -33.30516,9.2411 -7.19842,0.41513 3.99979,-8.47234 8.88246,-11.19997 4.88266,-2.72763 29.76416,-12.06644 36.13018,-8.25076 6.36602,3.81568 13.82693,11.79958 10.08183,11.20325 z"
       id="path3867-0"
       inkscape:connector-curvature="0"
       sodipodi:nodetypes="ssszzs" />
    <path
       style="fill:none;stroke:#000000;stroke-width:1px;stroke-linecap:butt;stroke-linejoin:miter;stroke-opacity:1"
       d="m 673.37541,162.41779 c 0.12289,1.72041 0.90353,7.22407 0.75762,10.6066 20.55043,43.62649 -11.12297,102.73139 9.84898,143.44166 0.84696,10.56091 -1.31509,20.72473 -2.52538,31.31473"
       id="path3900"
       inkscape:connector-curvature="0" />
    <path
       style="fill:none;stroke:#000000;stroke-width:1px;stroke-linecap:butt;stroke-linejoin:miter;stroke-opacity:1"
       d="m 580.33265,201.66438 c 57.88739,-11.76263 121.25428,15.6765 176.27162,-0.50507"
       id="path3902"
       inkscape:connector-curvature="0" />
    <path
       style="fill:none;stroke:#000000;stroke-width:1px;stroke-linecap:butt;stroke-linejoin:miter;stroke-opacity:1"
       d="m 643.74244,295.09547 45.94725,0.5461 26.78561,0.31835"
       id="path3904"
       inkscape:connector-curvature="0"
       sodipodi:nodetypes="ccc" />
    <path
       sodipodi:type="arc"
       style="fill:#ffffff;stroke:#000000;stroke-width:1;stroke-miterlimit:4;stroke-opacity:1;stroke-dasharray:none"
       id="path3928"
       sodipodi:cx="406.07144"
       sodipodi:cy="234.86218"
       sodipodi:rx="5.7142854"
       sodipodi:ry="6.7857141"
       d="m 411.78573,234.86218 a 5.7142854,6.7857141 0 1 1 -11.42857,0 5.7142854,6.7857141 0 1 1 11.42857,0 z"
       transform="translate(5.5357143,-0.35714286)" />
    <path
       sodipodi:type="arc"
       style="fill:#ffffff;stroke:#000000;stroke-width:1;stroke-miterlimit:4;stroke-opacity:1;stroke-dasharray:none"
       id="path3930"
       sodipodi:cx="411.25"
       sodipodi:cy="244.14789"
       sodipodi:rx="3.0357144"
       sodipodi:ry="2.8571432"
       d="m 414.28571,244.14789 a 3.0357144,2.8571432 0 1 1 -6.07142,0 3.0357144,2.8571432 0 1 1 6.07142,0 z"
       transform="matrix(0.98382511,0,0,1.2258821,6.4838669,-64.595297)" />
    <path
       style="fill:none;stroke:#000000;stroke-width:1px;stroke-linecap:butt;stroke-linejoin:miter;stroke-opacity:1"
       d="m 389.10714,239.32647 c 13.89659,-11.49187 33.6718,-18.54806 49.64286,-7.14286"
       id="path3926"
       inkscape:connector-curvature="0"
       sodipodi:nodetypes="cc" />
    <path
       style="fill:none;stroke:#000000;stroke-width:1.02423382px;stroke-linecap:butt;stroke-linejoin:miter;stroke-opacity:1"
       d="m 439.97059,229.78326 c -18.26398,-13.65684 -44.87383,2.16834 -47.72078,5.10991 -2.84695,2.94156 -4.05935,4.50723 -2.13354,5.2913 7.75769,3.15843 36.24295,2.08919 48.06397,-8.37649 1.7304,-1.53199 1.2583,-1.3136 1.79035,-2.02472 z"
       id="path3906-6"
       inkscape:connector-curvature="0"
       sodipodi:nodetypes="czssc" />
    <path
       style="fill:none;stroke:#000000;stroke-width:0.46922264px;stroke-linecap:butt;stroke-linejoin:miter;stroke-opacity:1"
       d="m 369.72038,311.1756 c 16.20558,-5.59681 22.96965,-0.5362 34.38586,-0.72685"
       id="path3934"
       inkscape:connector-curvature="0"
       sodipodi:nodetypes="cc" />
    <path
       style="fill:none;stroke:#000000;stroke-width:0.6045804px;stroke-linecap:butt;stroke-linejoin:miter;stroke-opacity:1"
       d="m 371.78983,311.50933 c -18.4351,-7.62536 -25.02996,0.44138 -37.45892,0.77608"
       id="path3934-2"
       inkscape:connector-curvature="0"
       sodipodi:nodetypes="cc" />
    <path
       style="fill:none;stroke:#000000;stroke-width:0.94145846px;stroke-linecap:butt;stroke-linejoin:miter;stroke-opacity:1"
       d="m 334.82947,312.93813 c 22.70264,2.52473 45.41768,4.47779 68.29546,-1.06595"
       id="path3954"
       inkscape:connector-curvature="0"
       sodipodi:nodetypes="cc" />
    <path
       style="fill:none;stroke:#000000;stroke-width:0.76424319px;stroke-linecap:butt;stroke-linejoin:miter;stroke-opacity:1"
       d="m 346.86953,315.4877 c 13.629,8.0813 27.24902,16.24618 43.67231,-1.66491"
       id="path3956"
       inkscape:connector-curvature="0"
       sodipodi:nodetypes="cc" />
    <path
       style="fill:none;stroke:#000000;stroke-width:1.02423382px;stroke-linecap:butt;stroke-linejoin:miter;stroke-opacity:1"
       d="m 303.17656,231.26058 c 18.26398,-13.65684 44.87383,2.16834 47.72078,5.10991 2.84695,2.94156 4.05935,4.50723 2.13354,5.2913 -7.75769,3.15843 -36.24295,2.08919 -48.06397,-8.37649 -1.7304,-1.53199 -1.2583,-1.3136 -1.79035,-2.02472 z"
       id="path3906-6-5"
       inkscape:connector-curvature="0"
       sodipodi:nodetypes="czssc" />
    <path
       style="fill:none;stroke:#000000;stroke-width:1px;stroke-linecap:butt;stroke-linejoin:miter;stroke-opacity:1"
       d="m 353.49981,240.60729 c -13.89659,-11.49187 -33.6718,-18.54806 -49.64286,-7.14286"
       id="path3926-5"
       inkscape:connector-curvature="0"
       sodipodi:nodetypes="cc" />
    <path
       transform="matrix(-1,0,0,1,737.41788,0.76102791)"
       sodipodi:type="arc"
       style="fill:#ffffff;stroke:#000000;stroke-width:1;stroke-miterlimit:4;stroke-opacity:1;stroke-dasharray:none"
       id="path3928-9"
       sodipodi:cx="406.07144"
       sodipodi:cy="234.86218"
       sodipodi:rx="5.7142854"
       sodipodi:ry="6.7857141"
       d="m 411.78573,234.86218 a 5.7142854,6.7857141 0 1 1 -11.42857,0 5.7142854,6.7857141 0 1 1 11.42857,0 z" />
    <path
       sodipodi:type="arc"
       style="fill:#ffffff;stroke:#000000;stroke-width:1;stroke-miterlimit:4;stroke-opacity:1;stroke-dasharray:none"
       id="path3930-2"
       sodipodi:cx="411.25"
       sodipodi:cy="244.14789"
       sodipodi:rx="3.0357144"
       sodipodi:ry="2.8571432"
       d="m 414.28571,244.14789 a 3.0357144,2.8571432 0 1 1 -6.07142,0 3.0357144,2.8571432 0 1 1 6.07142,0 z"
       transform="matrix(0.98382511,0,0,1.2258821,-72.515683,-63.577683)" />
    <path
       style="fill:none;stroke:#000000;stroke-width:1px;stroke-linecap:butt;stroke-linejoin:miter;stroke-opacity:1"
       d="m 363.65491,289.19194 c 4.88241,2.79655 9.76481,3.41331 14.64722,-0.50508"
       id="path4036"
       inkscape:connector-curvature="0"
       sodipodi:nodetypes="cc" />
    <path
       style="fill:none;stroke:#000000;stroke-width:1px;stroke-linecap:butt;stroke-linejoin:miter;stroke-opacity:1"
       d="m 378.21429,288.61218 c 4.15844,1.59398 7.15106,1.32265 8.92857,-0.89286"
       id="path4038"
       inkscape:connector-curvature="0"
       sodipodi:nodetypes="cc" />
    <path
       style="fill:none;stroke:#000000;stroke-width:1px;stroke-linecap:butt;stroke-linejoin:miter;stroke-opacity:1"
       d="m 364.46429,288.90799 c -4.15844,1.59398 -7.15106,1.32265 -8.92857,-0.89286"
       id="path4038-1"
       inkscape:connector-curvature="0"
       sodipodi:nodetypes="cc" />
    <path
       style="fill:none;stroke:#000000;stroke-width:0.84779161px;stroke-linecap:butt;stroke-linejoin:miter;stroke-opacity:1"
       d="m 365.08129,284.21727 c -2.4001,-2.82912 -2.74031,-13.78408 0.41749,-38.53799"
       id="path4062"
       inkscape:connector-curvature="0"
       sodipodi:nodetypes="cc" />
    <path
       style="fill:none;stroke:#000000;stroke-width:1px;stroke-linecap:butt;stroke-linejoin:miter;stroke-opacity:1"
       d="m 657.14286,380.93361 -22.85715,0 74.28572,105.71429 72.85714,-104.28571 -14.28571,-4.28572"
       id="path4083"
       inkscape:connector-curvature="0" />
    <path
       style="fill:none;stroke:#000000;stroke-width:1px;stroke-linecap:butt;stroke-linejoin:miter;stroke-opacity:1"
       d="M 778.32698,382.55182 901.5656,395.68381"
       id="path4089"
       inkscape:connector-curvature="0" />
  </g>
</svg>
