<?xml version="1.0" encoding="UTF-8" standalone="no"?>
<!-- Created with Inkscape (http://www.inkscape.org/) -->

<svg
   xmlns:dc="http://purl.org/dc/elements/1.1/"
   xmlns:cc="http://creativecommons.org/ns#"
   xmlns:rdf="http://www.w3.org/1999/02/22-rdf-syntax-ns#"
   xmlns:svg="http://www.w3.org/2000/svg"
   xmlns="http://www.w3.org/2000/svg"
   xmlns:xlink="http://www.w3.org/1999/xlink"
   xmlns:sodipodi="http://sodipodi.sourceforge.net/DTD/sodipodi-0.dtd"
   xmlns:inkscape="http://www.inkscape.org/namespaces/inkscape"
   width="744.09448819"
   height="1052.3622047"
   id="svg5427"
   version="1.1"
   inkscape:version="0.48.4 r9939"
   sodipodi:docname="MICROSCOPE.svg">
  <defs
     id="defs5429">
    <linearGradient
       inkscape:collect="always"
       id="linearGradient4053">
      <stop
         style="stop-color:#cccccc;stop-opacity:1;"
         offset="0"
         id="stop4055" />
      <stop
         style="stop-color:#cccccc;stop-opacity:0;"
         offset="1"
         id="stop4057" />
    </linearGradient>
    <inkscape:path-effect
       effect="spiro"
       id="path-effect3984"
       is_visible="true" />
    <linearGradient
       inkscape:collect="always"
       id="linearGradient6154">
      <stop
         style="stop-color:#241c1c;stop-opacity:1;"
         offset="0"
         id="stop6156" />
      <stop
         style="stop-color:#241c1c;stop-opacity:0;"
         offset="1"
         id="stop6158" />
    </linearGradient>
    <linearGradient
       inkscape:collect="always"
       xlink:href="#linearGradient6154"
       id="linearGradient6160"
       x1="299.00516"
       y1="104.8391"
       x2="450.52805"
       y2="76.554825"
       gradientUnits="userSpaceOnUse"
       gradientTransform="matrix(0.80381381,0,0,1.0013633,55.341605,-0.11840957)" />
    <linearGradient
       inkscape:collect="always"
       xlink:href="#linearGradient4053"
       id="linearGradient4059"
       x1="345.99643"
       y1="978.0979"
       x2="350.98865"
       y2="931.57501"
       gradientUnits="userSpaceOnUse" />
  </defs>
  <sodipodi:namedview
     id="base"
     pagecolor="#ffffff"
     bordercolor="#666666"
     borderopacity="1.0"
     inkscape:pageopacity="0.0"
     inkscape:pageshadow="2"
     inkscape:zoom="0.35"
     inkscape:cx="435.84896"
     inkscape:cy="552.49563"
     inkscape:document-units="px"
     inkscape:current-layer="layer1"
     showgrid="false"
     inkscape:window-width="1366"
     inkscape:window-height="716"
     inkscape:window-x="0"
     inkscape:window-y="0"
     inkscape:window-maximized="1"
     inkscape:object-paths="false"
     inkscape:snap-nodes="false"
     showguides="true"
     inkscape:guide-bbox="true" />
  <metadata
     id="metadata5432">
    <rdf:RDF>
      <cc:Work
         rdf:about="">
        <dc:format>image/svg+xml</dc:format>
        <dc:type
           rdf:resource="http://purl.org/dc/dcmitype/StillImage" />
        <dc:title />
      </cc:Work>
    </rdf:RDF>
  </metadata>
  <g
     inkscape:label="Layer 1"
     inkscape:groupmode="layer"
     id="layer1">
    <path
       style="fill:none;stroke:#000000;stroke-width:1;stroke-linecap:butt;stroke-linejoin:miter;stroke-miterlimit:4;stroke-opacity:1;stroke-dasharray:none"
       d="M 291.72244,187.68743 291.47066,84.947569"
       id="path5562"
       inkscape:connector-curvature="0" />
    <path
       style="fill:none;stroke:#000000;stroke-width:1;stroke-linecap:butt;stroke-linejoin:miter;stroke-opacity:1;stroke-miterlimit:4;stroke-dasharray:none"
       d="m 291.60447,159.94643 0,358.9046 139.20369,0 0,-364.87869"
       id="path6108"
       inkscape:connector-curvature="0" />
    <rect
       style="fill:#241c1c;fill-opacity:1;stroke:#000000;stroke-width:0.80769145;stroke-miterlimit:4;stroke-opacity:1;stroke-dasharray:none;stroke-dashoffset:0"
       id="rect6114"
       width="56.760853"
       height="158.93494"
       x="234.11385"
       y="220.91048" />
    <rect
       style="fill:#241c1c;fill-opacity:1;stroke:#000000;stroke-width:0.80046809;stroke-miterlimit:4;stroke-opacity:1;stroke-dasharray:none;stroke-dashoffset:0"
       id="rect6114-3"
       width="56.768074"
       height="156.08501"
       x="430.44424"
       y="221.88647" />
    <path
       style="fill:url(#linearGradient6160);fill-opacity:1;stroke:#000000;stroke-width:1.813;stroke-miterlimit:4;stroke-opacity:1;stroke-dasharray:none;stroke-dashoffset:0"
       d="m 291.96591,117.63152 c 0.43323,-45.057817 0.48297,-45.634066 4.91071,-56.896494 27.75943,-70.6090527 111.1154,-65.5556168 130.99017,7.941249 2.9681,10.97606 3.34751,17.16097 3.27844,53.443315 l -0.0781,41.03078 -4.9501,-11.95367 c -15.21492,-36.74161 -51.26957,-55.48377 -84.59162,-43.97299 -20.73414,7.16241 -37.13454,23.44016 -45.88566,45.54249 l -4.11147,10.38417 0.43766,-45.51885 z"
       id="path6152"
       inkscape:connector-curvature="0" />
    <rect
       style="fill:#ffffff;fill-opacity:1;stroke:#000000;stroke-width:0.78756821;stroke-miterlimit:4;stroke-opacity:1;stroke-dasharray:none;stroke-dashoffset:0"
       id="rect6162"
       width="22.435787"
       height="60.821583"
       x="210.98479"
       y="271.43286" />
    <rect
       style="fill:#ffffff;fill-opacity:1;stroke:#000000;stroke-width:0.78756726;stroke-miterlimit:4;stroke-opacity:1;stroke-dasharray:none;stroke-dashoffset:0"
       id="rect6162-1"
       width="22.435789"
       height="60.821434"
       x="488.6037"
       y="261.33252" />
    <rect
       style="fill:#ffffff;fill-opacity:1;stroke:#000000;stroke-width:1;stroke-miterlimit:4;stroke-opacity:1;stroke-dasharray:none;stroke-dashoffset:0"
       id="rect6182"
       width="66.670067"
       height="129.29953"
       x="144.04201"
       y="236.23222"
       ry="32.324883" />
    <rect
       style="fill:#ffffff;fill-opacity:1;stroke:#000000;stroke-width:1;stroke-miterlimit:4;stroke-opacity:1;stroke-dasharray:none;stroke-dashoffset:0"
       id="rect6182-6"
       width="66.670067"
       height="129.29953"
       x="510.91034"
       y="230.51794"
       ry="32.324883"
       inkscape:transform-center-x="68.571429"
       inkscape:transform-center-y="-285.71429" />
    <path
       sodipodi:type="arc"
       style="fill:#ffffff;fill-rule:evenodd;stroke:#000000;stroke-width:1px;stroke-linecap:butt;stroke-linejoin:miter;stroke-opacity:1"
       id="path3017"
       sodipodi:cx="362.85715"
       sodipodi:cy="553.79077"
       sodipodi:rx="111.42857"
       sodipodi:ry="30"
       d="m 474.28572,553.79077 a 111.42857,30 0 1 1 -222.85715,0 111.42857,30 0 1 1 222.85715,0 z"
       transform="matrix(1.4222213,0,0,0.99682212,-155.77746,-19.66869)" />
    <path
       sodipodi:type="arc"
       style="fill:#ffffff;fill-rule:evenodd;stroke:#000000;stroke-width:1px;stroke-linecap:butt;stroke-linejoin:miter;stroke-opacity:1"
       id="path3017-7"
       sodipodi:cx="362.85715"
       sodipodi:cy="553.79077"
       sodipodi:rx="111.42857"
       sodipodi:ry="30"
       d="m 474.28572,553.79077 a 111.42857,30 0 1 1 -222.85715,0 111.42857,30 0 1 1 222.85715,0 z"
       transform="matrix(1.4222213,0,0,0.99682212,-155.10574,-2.0397082)" />
    <path
       sodipodi:type="arc"
       style="fill:#ffffff;fill-rule:evenodd;stroke:#000000;stroke-width:1px;stroke-linecap:butt;stroke-linejoin:miter;stroke-opacity:1"
       id="path3034"
       sodipodi:cx="468.71078"
       sodipodi:cy="554.35699"
       sodipodi:rx="40.406101"
       sodipodi:ry="5.0507627"
       d="m 509.11689,554.35699 a 40.406101,5.0507627 0 1 1 -80.81221,0 40.406101,5.0507627 0 1 1 80.81221,0 z"
       transform="matrix(0.98465267,0.17452537,-0.17452537,0.98465267,92.542995,-79.393751)" />
    <path
       sodipodi:type="arc"
       style="fill:#ffffff"
       id="path3804"
       sodipodi:cx="407.59656"
       sodipodi:cy="554.10443"
       sodipodi:rx="1.5152289"
       sodipodi:ry="0.25253814"
       d="m 409.11179,554.10443 a 1.5152289,0.25253814 0 1 1 -3.03046,0 1.5152289,0.25253814 0 1 1 3.03046,0 z" />
    <path
       style="fill:none;stroke:#000000;stroke-width:1px;stroke-linecap:butt;stroke-linejoin:miter;stroke-opacity:1"
       d="M 495.65331,823.05755 493.633,854.37228"
       id="path3852"
       inkscape:connector-curvature="0" />
    <path
       style="fill:none;stroke:#000000;stroke-width:1px;stroke-linecap:butt;stroke-linejoin:miter;stroke-opacity:1"
       d="m 224.09623,822.15768 -1.51523,29.7995"
       id="path3858"
       inkscape:connector-curvature="0" />
    <path
       style="fill:none;stroke:#000000;stroke-width:1.03125846px;stroke-linecap:butt;stroke-linejoin:miter;stroke-opacity:1"
       d="m 302.03561,577.62224 0,337.32745 z"
       id="path3882"
       inkscape:connector-curvature="0" />
    <path
       style="fill:none;stroke:#000000;stroke-width:1.021312px;stroke-linecap:butt;stroke-linejoin:miter;stroke-opacity:1"
       d="m 415.1727,576.60187 0,341.38849 z"
       id="path3884"
       inkscape:connector-curvature="0" />
    <path
       style="fill:#ffffff;stroke:#000000;stroke-width:1.32380116;stroke-miterlimit:4;stroke-opacity:1"
       d="m 197.38568,633.94139 324.23312,0 86.8483,145.13789 -506.3122,0 z"
       id="rect3809"
       inkscape:connector-curvature="0"
       sodipodi:nodetypes="ccccc" />
    <path
       style="fill:#ffffff;stroke:#000000;stroke-width:1;stroke-miterlimit:4;stroke-opacity:1"
       d="m 315.7143,553.79073 82.85714,0 -12.85714,112.85714 c -11.42858,15.23807 -41.90476,16.66669 -57.14286,1.42857 z"
       id="rect3808"
       inkscape:connector-curvature="0"
       sodipodi:nodetypes="ccccc" />
    <path
       style="fill:#ffffff;stroke:#000000;stroke-width:1;stroke-miterlimit:4;stroke-opacity:1"
       d="m 222.85714,552.36216 82.85715,-8.57143 -68.57143,115.71429 c -14.66536,-1.52839 -32.3691,7.57753 -40.00001,-18.57143 z"
       id="rect3805"
       inkscape:connector-curvature="0"
       sodipodi:nodetypes="ccccc" />
    <path
       sodipodi:type="arc"
       style="fill:#ffffff;stroke:#000000;stroke-width:1;stroke-miterlimit:4;stroke-opacity:1;stroke-dasharray:none"
       id="path3814"
       sodipodi:cx="352.54324"
       sodipodi:cy="713.96106"
       sodipodi:rx="41.416256"
       sodipodi:ry="13.131983"
       d="m 393.9595,713.96106 a 41.416256,13.131983 0 1 1 -82.83251,0 41.416256,13.131983 0 1 1 82.83251,0 z"
       transform="translate(7.6406223,-11.37955)" />
    <rect
       style="fill:#000000;stroke:#000000;stroke-width:1.81299995999999997;stroke-miterlimit:4;stroke-opacity:1;stroke-dasharray:none"
       id="rect3886"
       width="25.253815"
       height="30.304575"
       x="347.90247"
       y="875.05609"
       ry="15.152287"
       rx="5.0507627" />
    <path
       sodipodi:type="arc"
       style="fill:#ffffff;stroke:#000000;stroke-width:1;stroke-miterlimit:4;stroke-opacity:1;stroke-dasharray:none"
       id="path3830-1"
       sodipodi:cx="370.72598"
       sodipodi:cy="841.2403"
       sodipodi:rx="168.69548"
       sodipodi:ry="21.213203"
       d="m 539.42146,841.2403 a 168.69548,21.213203 0 1 1 -337.39096,0 168.69548,21.213203 0 1 1 337.39096,0 z"
       transform="matrix(0.81000966,0,0,1.0023327,58.155869,7.2583113)" />
    <path
       sodipodi:type="arc"
       style="fill:#ffffff;stroke:#000000;stroke-width:1;stroke-miterlimit:4;stroke-opacity:1;stroke-dasharray:none"
       id="path3830"
       sodipodi:cx="370.72598"
       sodipodi:cy="841.2403"
       sodipodi:rx="168.69548"
       sodipodi:ry="21.213203"
       d="m 539.42146,841.2403 a 168.69548,21.213203 0 1 1 -337.39096,0 168.69548,21.213203 0 1 1 337.39096,0 z"
       transform="matrix(0.81000966,0,0,1.0023327,58.734869,-20.061689)" />
    <rect
       style="fill:#ffffff;stroke:#000000;stroke-width:1.00710058;stroke-miterlimit:4;stroke-opacity:1;stroke-dasharray:none"
       id="rect3826"
       width="506.20789"
       height="44.439575"
       x="102.85755"
       y="779.28418" />
    <path
       sodipodi:type="arc"
       style="fill:#ffffff;stroke:#000000;stroke-width:1.81299996;stroke-miterlimit:4;stroke-opacity:1;stroke-dasharray:none"
       id="path3898"
       sodipodi:cx="262.63965"
       sodipodi:cy="1052.3622"
       sodipodi:rx="131.31982"
       sodipodi:ry="119.198"
       d="M 140.37356,1095.8548 A 131.31982,119.198 0 0 1 205.07283,945.22773"
       transform="matrix(1.5212954,0,0,1.0404102,-11.214746,-106.94674)"
       sodipodi:start="2.7680922"
       sodipodi:end="4.2586034"
       sodipodi:open="true" />
    <path
       sodipodi:type="arc"
       style="fill:#ffffff;stroke:#000000;stroke-width:1;stroke-miterlimit:4;stroke-opacity:1;stroke-dasharray:none"
       id="path3860"
       sodipodi:cx="346.07144"
       sodipodi:cy="972.00507"
       sodipodi:rx="140.35715"
       sodipodi:ry="39.642857"
       d="m 486.42859,972.00507 a 140.35715,39.642857 0 1 1 -280.7143,0 140.35715,39.642857 0 1 1 280.7143,0 z"
       transform="matrix(0.80938333,0,0,1.0856509,68.781044,-89.006244)" />
    <path
       sodipodi:type="arc"
       style="fill:#ffffff;stroke:#000000;stroke-width:1.81299996;stroke-miterlimit:4;stroke-opacity:1;stroke-dasharray:none"
       id="path3898-3"
       sodipodi:cx="262.63965"
       sodipodi:cy="1052.3622"
       sodipodi:rx="131.31982"
       sodipodi:ry="119.198"
       d="M 140.37356,1095.8548 A 131.31982,119.198 0 0 1 205.07283,945.22773"
       transform="matrix(-1.5212954,0,0,1.0404102,726.58836,-108.41437)"
       sodipodi:start="2.7680922"
       sodipodi:end="4.2586034"
       sodipodi:open="true" />
    <path
       sodipodi:type="arc"
       style="fill:url(#linearGradient4059);stroke:#000000;stroke-width:1;stroke-miterlimit:4;stroke-opacity:1;stroke-dasharray:none;fill-opacity:1"
       id="path3860-5"
       sodipodi:cx="346.07144"
       sodipodi:cy="972.00507"
       sodipodi:rx="140.35715"
       sodipodi:ry="39.642857"
       d="m 486.42859,972.00507 a 140.35715,39.642857 0 1 1 -280.7143,0 140.35715,39.642857 0 1 1 280.7143,0 z"
       transform="matrix(0.80938333,0,0,1.0856509,68.45889,-101.43455)" />
    <path
       sodipodi:type="arc"
       style="fill:#ffffff;stroke:#000000;stroke-width:1.81299996;stroke-miterlimit:4;stroke-opacity:1;stroke-dasharray:none"
       id="path3898-9"
       sodipodi:cx="262.63965"
       sodipodi:cy="1052.3622"
       sodipodi:rx="131.31982"
       sodipodi:ry="119.198"
       d="m 144.31037,1104.0535 a 131.31982,119.198 0 0 1 64.9167,-160.58411"
       transform="matrix(1.5211002,0,0,1.0537272,-94.200033,-148.26881)"
       sodipodi:start="2.693043"
       sodipodi:end="4.29351"
       sodipodi:open="true" />
    <path
       sodipodi:type="arc"
       style="fill:#ffffff;stroke:#000000;stroke-width:1.81299996;stroke-miterlimit:4;stroke-opacity:1;stroke-dasharray:none"
       id="path3898-9-3"
       sodipodi:cx="262.63965"
       sodipodi:cy="1052.3622"
       sodipodi:rx="131.31982"
       sodipodi:ry="119.198"
       d="m 144.31037,1104.0535 a 131.31982,119.198 0 0 1 64.9167,-160.58411"
       transform="matrix(-1.5211002,0,0,1.0537272,813.55372,-147.62137)"
       sodipodi:start="2.693043"
       sodipodi:end="4.29351"
       sodipodi:open="true" />
    <path
       sodipodi:type="arc"
       style="fill:#ffffff;stroke:#000000;stroke-width:1.81299996;stroke-miterlimit:4;stroke-opacity:1;stroke-dasharray:none"
       id="path3960"
       sodipodi:cx="665.69055"
       sodipodi:cy="527.08289"
       sodipodi:rx="18.182749"
       sodipodi:ry="12.121831"
       d="m 683.8733,527.08289 a 18.182749,12.121831 0 1 1 -36.3655,0 18.182749,12.121831 0 1 1 36.3655,0 z"
       transform="matrix(0.84837827,0,0,0.45491048,-208.02273,430.33815)" />
    <path
       style="fill:none;stroke:#000000;stroke-width:1.01621854px;stroke-linecap:butt;stroke-linejoin:miter;stroke-opacity:1"
       d="m 328.55111,664.14072 c 26.20569,-10.08568 42.50371,-5.42089 58.05474,0.35619"
       id="path3972"
       inkscape:connector-curvature="0"
       sodipodi:nodetypes="cc" />
    <path
       style="fill:none;stroke:#000000;stroke-width:1px;stroke-linecap:butt;stroke-linejoin:miter;stroke-opacity:1"
       d="m 197.5,640.57647 c 15.15456,2.05095 27.18732,9.56505 38.57143,18.21428"
       id="path3982"
       inkscape:connector-curvature="0"
       sodipodi:nodetypes="cc" />
    <path
       style="fill:none;stroke:#000000;stroke-width:2.295;stroke-linecap:butt;stroke-linejoin:miter;stroke-opacity:1;stroke-miterlimit:4;stroke-dasharray:none"
       d="m 123.57143,1013.0765 c 34.4992,41.5987 56.41678,31.0736 77.85714,18.5714"
       id="path3991"
       inkscape:connector-curvature="0"
       sodipodi:nodetypes="cc" />
    <path
       style="fill:none;stroke:#000000;stroke-width:2.38269305;stroke-linecap:butt;stroke-linejoin:miter;stroke-miterlimit:4;stroke-opacity:1;stroke-dasharray:none"
       d="m 595.87063,1013.506 c -37.29624,41.4752 -60.99066,30.9813 -84.16931,18.5158"
       id="path3991-8"
       inkscape:connector-curvature="0"
       sodipodi:nodetypes="cc" />
    <text
       xml:space="preserve"
       style="font-size:20px;font-style:normal;font-weight:normal;line-height:125%;letter-spacing:0px;word-spacing:0px;fill:#000000;fill-opacity:1;stroke:none;font-family:Sans"
       x="420.23569"
       y="472.40613"
       id="text4017"
       sodipodi:linespacing="125%"
       transform="matrix(0.92279946,0.37218179,-0.36708736,0.93560606,0,0)"><tspan
         sodipodi:role="line"
         id="tspan4019"
         x="420.23569"
         y="472.40613"> 45x</tspan></text>
    <text
       xml:space="preserve"
       style="font-size:20px;font-style:normal;font-weight:normal;line-height:125%;letter-spacing:0px;word-spacing:0px;fill:#000000;fill-opacity:1;stroke:none;font-family:Sans"
       x="335.37064"
       y="625.06769"
       id="text4021"
       sodipodi:linespacing="125%"><tspan
         sodipodi:role="line"
         id="tspan4025"
         x="335.37064"
         y="625.06769">10x</tspan></text>
    <path
       style="fill:#000000;stroke:#000000;stroke-width:2.31830025;stroke-miterlimit:4;stroke-opacity:1;stroke-dasharray:none"
       d="m 334.89679,1007.9034 c -47.19527,-2.5187 -85.36549,-15.73474 -95.89328,-33.20204 -1.97959,-3.28446 -3.50522,-9.59737 -2.3188,-9.59496 0.4028,8.1e-4 2.9431,2.25426 5.64511,5.00765 23.44202,23.88773 100.82214,34.55255 161.09568,22.20274 25.76586,-5.27931 47.153,-15.23361 54.65896,-25.44014 l 3.0814,-4.19005 0,3.77478 c 0,17.6737 -32.37531,34.13182 -77.78175,39.54062 -12.44744,1.4827 -37.74425,2.4747 -48.48732,1.9014 l 0,0 z"
       id="path4043"
       inkscape:connector-curvature="0" />
  </g>
</svg>
